<?xml version="1.0" standalone="no"?>
<!DOCTYPE svg PUBLIC "-//W3C//DTD SVG 20010904//EN"
 "http://www.w3.org/TR/2001/REC-SVG-20010904/DTD/svg10.dtd">
<svg version="1.0" xmlns="http://www.w3.org/2000/svg"
 width="100.000000pt" height="100.000000pt" viewBox="0 0 100.000000 100.000000"
 preserveAspectRatio="xMidYMid meet">

<g transform="translate(0.000000,100.000000) scale(0.100000,-0.100000)"
fill="#000000" stroke="none">
<path d="M675 981 c-38 -17 -79 -56 -137 -130 l-26 -34 -32 26 c-25 21 -42 27
-81 27 -42 0 -55 -5 -85 -33 -32 -29 -37 -40 -40 -88 l-3 -54 9 55 c12 76 50
110 121 110 43 0 55 -5 81 -30 l30 -30 18 22 c9 13 33 43 51 67 44 58 77 81
136 97 30 8 39 13 23 13 -14 0 -43 -8 -65 -18z"/>
<path d="M780 983 c32 -12 60 -48 76 -99 9 -30 19 -53 21 -50 2 2 -3 27 -12
55 -18 54 -58 101 -84 100 -13 0 -14 -1 -1 -6z"/>
<path d="M674 949 c-41 -20 -144 -138 -144 -165 0 -6 -6 -17 -14 -23 -11 -9
-16 -5 -26 19 -17 41 -46 60 -91 60 -51 0 -67 -8 -84 -41 -25 -46 -19 -104 13
-139 23 -27 31 -30 52 -22 25 9 25 9 3 16 -32 10 -63 54 -63 88 0 34 48 88 78
88 11 0 30 -9 43 -20 l24 -19 -28 -1 c-71 -1 -89 -54 -40 -118 27 -36 52 -94
53 -124 0 -28 -27 -21 -42 10 -11 22 -21 28 -54 30 -28 2 -47 -2 -58 -13 -19
-19 -22 -85 -4 -103 28 -28 118 -2 118 33 0 10 11 14 35 13 29 -1 35 -5 35
-24 0 -12 -6 -25 -12 -27 -8 -3 -6 -6 5 -6 12 -1 17 7 17 29 0 38 9 38 45 0
26 -27 34 -30 84 -28 l56 2 -50 3 c-61 5 -113 45 -92 72 10 14 10 14 -5 3 -9
-8 -22 -11 -28 -7 -5 3 -10 1 -10 -6 0 -7 -2 -10 -5 -7 -10 10 15 58 30 58 8
0 15 -4 15 -10 0 -5 6 -10 13 -10 6 1 2 9 -11 20 -21 17 -23 26 -20 92 2 40 7
71 12 68 5 -3 15 11 21 30 7 21 18 34 27 33 8 -2 19 11 26 31 12 33 52 78 52
59 0 -6 15 4 34 23 37 37 69 43 104 18 31 -21 28 -31 -13 -38 -45 -9 -59 -36
-52 -98 6 -47 5 -48 -20 -48 -15 0 -34 7 -44 15 -15 15 -17 13 -23 -17 -3 -18
-11 -40 -16 -48 -9 -13 -11 -13 -19 -1 -6 10 -9 1 -8 -27 1 -23 5 -42 8 -42 3
0 15 24 28 54 l22 54 50 4 c81 5 89 -35 14 -68 -16 -8 -41 -22 -55 -33 l-25
-20 25 6 c14 3 31 11 39 17 11 8 15 8 18 -1 6 -17 23 -17 23 0 0 14 31 47 43
47 11 0 8 -49 -4 -71 -10 -20 -9 -20 14 -5 13 9 32 32 43 51 21 39 26 42 44
20 10 -12 8 -18 -9 -33 -29 -22 -32 -94 -6 -122 26 -28 32 -112 10 -133 -12
-13 -13 -17 -3 -17 25 0 87 74 104 123 10 29 14 61 10 81 -8 44 -70 124 -101
132 -23 6 -25 11 -25 59 0 34 -9 72 -24 108 -39 88 -83 106 -162 66z m146 -79
c11 -11 22 -31 26 -46 10 -38 -3 -123 -23 -153 l-17 -26 -8 39 c-5 21 -22 55
-38 76 -42 53 -37 106 10 123 25 9 29 8 50 -13z m-369 -100 c46 -25 64 -122
33 -182 l-16 -32 -18 48 c-10 26 -30 62 -44 81 -30 39 -32 57 -10 79 18 19 28
20 55 6z m505 -145 c26 -39 15 -124 -22 -172 l-29 -38 -6 50 c-3 28 -14 69
-24 93 -14 34 -15 48 -7 68 16 34 65 33 88 -1z m-560 -73 c3 -17 -1 -22 -19
-23 -16 -1 -18 -2 -4 -6 44 -11 5 -56 -44 -51 -30 4 -33 8 -37 42 -5 51 12 68
61 64 32 -3 41 -8 43 -26z"/>
<path d="M762 858 c-20 -20 -13 -61 18 -98 36 -43 39 -36 5 10 -27 37 -32 69
-13 88 7 7 10 12 7 12 -3 0 -10 -5 -17 -12z"/>
<path d="M404 746 c-3 -7 9 -35 25 -62 37 -58 41 -48 5 13 -14 24 -22 48 -19
53 3 6 4 10 0 10 -3 0 -8 -6 -11 -14z"/>
<path d="M884 615 c-4 -9 3 -37 15 -63 23 -54 29 -40 6 15 -9 20 -13 43 -11
50 3 7 3 13 0 13 -2 0 -7 -7 -10 -15z"/>
<path d="M770 920 c0 -5 5 -10 11 -10 5 0 7 5 4 10 -3 6 -8 10 -11 10 -2 0 -4
-4 -4 -10z"/>
<path d="M882 783 c-2 -38 1 -44 28 -58 16 -8 41 -35 56 -60 33 -57 43 -59 12
-3 -13 24 -37 52 -55 63 -25 16 -32 28 -36 60 l-4 40 -1 -42z"/>
<path d="M366 802 c-3 -5 8 -6 25 -4 16 2 29 6 29 8 0 8 -49 4 -54 -4z"/>
<path d="M20 629 c-12 -23 -20 -43 -18 -45 3 -2 14 17 26 41 27 56 20 60 -8 4z"/>
<path d="M127 648 c13 -12 26 -19 29 -15 4 4 -1 14 -12 22 -29 22 -41 18 -17
-7z"/>
<path d="M67 624 c-3 -3 2 -14 11 -25 17 -20 18 -96 1 -113 -5 -6 -9 -14 -9
-18 0 -11 38 -10 44 1 4 5 -4 7 -16 5 -13 -2 -17 -2 -10 2 7 3 12 25 12 52 l0
46 60 -59 60 -59 0 76 c0 51 -4 78 -12 82 -7 3 -3 3 10 0 12 -3 22 -1 22 5 0
6 -11 11 -25 11 -25 0 -33 -14 -16 -25 6 -3 10 -32 10 -65 0 -35 -5 -58 -10
-54 -5 3 -7 10 -4 15 7 11 -93 129 -110 129 -6 0 -14 -3 -18 -6z m77 -60 c60
-68 56 -81 -5 -16 -50 53 -64 72 -52 72 4 0 30 -25 57 -56z"/>
<path d="M605 573 c-5 -15 -4 -16 6 -5 22 21 28 14 32 -40 l3 -53 2 52 c2 48
4 52 30 56 17 2 10 5 -19 6 -36 1 -48 -3 -54 -16z"/>
<path d="M759 534 c2 -40 -1 -59 -10 -65 -11 -7 -10 -9 3 -9 11 0 18 10 20 27
3 23 9 29 41 34 33 5 37 4 37 -16 0 -11 -5 -26 -12 -33 -9 -9 -7 -12 13 -11
13 0 19 3 13 5 -6 2 -9 17 -6 33 5 36 -5 42 -51 31 -27 -6 -37 -5 -36 4 3 25
-1 56 -8 56 -5 0 -6 -25 -4 -56z"/>
<path d="M18 563 c28 -5 28 -27 2 -88 -11 -26 -20 -51 -20 -56 0 -5 31 -9 70
-9 l69 0 -20 -46 c-11 -26 -18 -49 -16 -51 4 -3 14 18 44 95 4 9 -13 12 -66
12 -39 0 -71 2 -71 4 0 2 9 25 20 51 11 26 20 58 20 71 0 20 -5 24 -27 23 -24
-2 -25 -2 -5 -6z"/>
<path d="M957 430 c-29 -53 -36 -75 -31 -99 15 -74 -25 -111 -120 -111 -47 0
-57 3 -67 22 l-12 23 -10 -23 c-6 -12 -18 -22 -29 -22 -15 0 -18 -7 -16 -47
l1 -48 4 43 c3 29 9 42 19 42 8 0 17 7 21 16 6 15 7 15 19 -1 11 -14 25 -17
85 -13 64 3 74 7 96 33 21 24 24 36 20 74 -4 39 0 55 30 109 19 35 34 65 31
67 -2 2 -20 -27 -41 -65z"/>
<path d="M175 373 c-5 -15 -4 -16 6 -5 7 6 22 12 34 12 18 0 20 -6 20 -67 0
-51 -4 -70 -15 -75 -9 -4 0 -7 20 -7 19 1 29 3 23 6 -9 3 -13 28 -13 74 0 61
2 69 19 69 11 0 21 -8 23 -17 3 -15 5 -14 10 5 6 21 4 22 -57 22 -51 0 -64 -3
-70 -17z"/>
<path d="M368 325 l4 -65 36 2 37 1 -32 4 c-33 4 -33 5 -33 58 0 33 5 55 13
58 6 3 3 6 -8 6 -18 1 -20 -4 -17 -64z"/>
<path d="M425 380 c4 -6 11 -8 16 -5 14 9 11 15 -7 15 -8 0 -12 -5 -9 -10z"/>
<path d="M531 360 c12 -16 26 -27 31 -24 4 3 8 0 8 -5 0 -6 -4 -11 -9 -11 -5
0 -19 -15 -31 -32 l-22 -33 27 29 27 29 30 -32 c24 -26 28 -37 23 -61 -7 -31
-51 -74 -66 -64 -5 3 -9 21 -9 40 0 38 -17 47 -22 12 -3 -20 -8 -23 -41 -20
-42 4 -67 -11 -67 -39 0 -11 -4 -19 -8 -19 -16 0 -35 48 -30 74 4 18 1 26 -8
26 -18 0 -19 -80 -1 -103 16 -22 74 -63 115 -82 26 -13 41 -13 74 -5 80 22
122 99 95 178 -15 43 -11 49 26 43 4 0 6 2 5 6 -1 5 2 19 6 33 5 19 14 25 36
25 17 0 30 -3 30 -7 0 -15 21 -60 26 -56 6 7 -46 128 -56 128 -4 0 -13 -13
-20 -30 -7 -16 -20 -30 -29 -30 -13 0 -13 -2 -2 -9 18 -12 -3 -51 -28 -51 -17
0 -61 39 -61 54 0 4 9 21 21 37 11 16 16 29 11 29 -5 0 -16 -10 -25 -22 l-15
-23 -24 23 c-34 31 -43 27 -17 -8z m203 -15 c4 -10 -1 -15 -14 -15 -20 0 -26
11 -13 23 10 11 20 8 27 -8z m-109 -234 c-32 -63 -120 -80 -175 -35 -24 21
-30 33 -28 57 5 48 30 56 83 28 53 -28 81 -21 112 26 l18 27 3 -36 c2 -20 -4
-50 -13 -67z"/>
<path d="M440 115 c0 -22 41 -45 83 -45 40 0 81 21 92 47 3 9 -6 4 -21 -10
-36 -36 -95 -37 -129 -2 -16 16 -25 19 -25 10z"/>
<path d="M821 353 c-1 -15 8 -24 30 -32 39 -14 37 -46 -4 -46 -15 1 -27 -3
-27 -7 0 -12 45 -9 58 4 7 7 12 22 12 34 0 16 -8 23 -29 27 -16 4 -31 14 -34
24 -4 15 -5 14 -6 -4z"/>
<path d="M403 323 c9 -2 25 -2 35 0 9 3 1 5 -18 5 -19 0 -27 -2 -17 -5z"/>
<path d="M176 297 c3 -8 -4 -37 -15 -65 l-21 -52 80 0 c47 0 80 4 80 10 0 6 5
10 10 10 6 0 10 -13 10 -29 0 -31 37 -92 60 -98 9 -3 7 3 -6 14 -29 25 -44 56
-44 92 0 31 -21 43 -35 21 -8 -12 -135 -13 -135 -1 0 5 7 25 15 44 17 42 19
67 5 67 -5 0 -7 -6 -4 -13z"/>
<path d="M398 206 c-3 -14 -2 -26 2 -26 12 0 19 26 10 39 -5 9 -9 4 -12 -13z"/>
<path d="M648 90 c-41 -71 -149 -94 -208 -44 -17 15 -33 24 -36 21 -3 -3 12
-17 33 -31 49 -34 116 -35 163 -4 34 24 77 74 69 82 -2 3 -12 -8 -21 -24z"/>
</g>
</svg>
